<?xml version="1.0" standalone="no"?><svg xmlns="http://www.w3.org/2000/svg" viewBox="0 0 1440 320"><path fill="#222629" fill-opacity="1" d="M0,64L15,96C30,128,60,192,90,197.3C120,203,150,149,180,149.3C210,149,240,203,270,197.3C300,192,330,128,360,101.3C390,75,420,85,450,96C480,107,510,117,540,112C570,107,600,85,630,74.7C660,64,690,64,720,85.3C750,107,780,149,810,144C840,139,870,85,900,85.3C930,85,960,139,990,170.7C1020,203,1050,213,1080,229.3C1110,245,1140,267,1170,234.7C1200,203,1230,117,1260,85.3C1290,53,1320,75,1350,101.3C1380,128,1410,160,1425,176L1440,192L1440,320L1425,320C1410,320,1380,320,1350,320C1320,320,1290,320,1260,320C1230,320,1200,320,1170,320C1140,320,1110,320,1080,320C1050,320,1020,320,990,320C960,320,930,320,900,320C870,320,840,320,810,320C780,320,750,320,720,320C690,320,660,320,630,320C600,320,570,320,540,320C510,320,480,320,450,320C420,320,390,320,360,320C330,320,300,320,270,320C240,320,210,320,180,320C150,320,120,320,90,320C60,320,30,320,15,320L0,320Z"></path></svg>